<svg xmlns="http://www.w3.org/2000/svg" width="960" height="570" viewBox="0 0 960 570" role="img" aria-labelledby="chart-title chart-description">
<title id="chart-title">Out-of-sample routing accuracy</title>
<desc id="chart-description">Strict accuracy and remote-call rate for four routing policies over 200 paired observations.</desc>
<rect width="960" height="570" fill="#ffffff"/>
<style>text{font-family:Inter,Segoe UI,Arial,sans-serif;fill:#172033}.title{font-size:26px;font-weight:700}.subtitle{font-size:14px;fill:#5f6b7a}.label{font-size:14px}.small{font-size:12px;fill:#5f6b7a}.value{font-size:13px;font-weight:700}</style>
<text x="52" y="48" class="title" text-anchor="start">Out-of-sample routing accuracy</text>
<text x="52" y="74" class="subtitle" text-anchor="start">Strict accuracy and remote-call rate across 200 paired observations</text>
<rect x="610" y="92" width="16" height="16" rx="3" fill="#386cb0"/>
<text x="634" y="105" class="small" text-anchor="start">Strict accuracy</text>
<rect x="760" y="92" width="16" height="16" rx="3" fill="#1b9e77"/>
<text x="784" y="105" class="small" text-anchor="start">Remote-call rate</text>
<line x1="190.0" y1="133" x2="190.0" y2="504" stroke="#d9dee7" stroke-width="1"/>
<text x="190.0" y="528" class="small" text-anchor="middle">0%</text>
<line x1="331.0" y1="133" x2="331.0" y2="504" stroke="#d9dee7" stroke-width="1"/>
<text x="331.0" y="528" class="small" text-anchor="middle">20%</text>
<line x1="472.0" y1="133" x2="472.0" y2="504" stroke="#d9dee7" stroke-width="1"/>
<text x="472.0" y="528" class="small" text-anchor="middle">40%</text>
<line x1="613.0" y1="133" x2="613.0" y2="504" stroke="#d9dee7" stroke-width="1"/>
<text x="613.0" y="528" class="small" text-anchor="middle">60%</text>
<line x1="754.0" y1="133" x2="754.0" y2="504" stroke="#d9dee7" stroke-width="1"/>
<text x="754.0" y="528" class="small" text-anchor="middle">80%</text>
<line x1="895.0" y1="133" x2="895.0" y2="504" stroke="#d9dee7" stroke-width="1"/>
<text x="895.0" y="528" class="small" text-anchor="middle">100%</text>
<text x="172" y="173" class="label" text-anchor="end">Always local</text>
<rect x="190" y="145" width="274.95" height="27" rx="3" fill="#386cb0"/>
<rect x="190" y="181" width="0.0" height="18" rx="3" fill="#1b9e77"/>
<text x="472.95" y="164" class="value" text-anchor="start">39.0%</text>
<text x="198.0" y="195" class="small" text-anchor="start">0.0%</text>
<text x="172" y="267" class="label" text-anchor="end">Coarse class</text>
<rect x="190" y="239" width="553.4250000000001" height="27" rx="3" fill="#386cb0"/>
<rect x="190" y="275" width="352.5" height="18" rx="3" fill="#1b9e77"/>
<text x="751.4250000000001" y="258" class="value" text-anchor="start">78.5%</text>
<text x="550.5" y="289" class="small" text-anchor="start">50.0%</text>
<text x="172" y="361" class="label" text-anchor="end">Fine capability</text>
<rect x="190" y="333" width="602.775" height="27" rx="3" fill="#386cb0"/>
<rect x="190" y="369" width="352.5" height="18" rx="3" fill="#1b9e77"/>
<text x="800.775" y="352" class="value" text-anchor="start">85.5%</text>
<text x="550.5" y="383" class="small" text-anchor="start">50.0%</text>
<text x="172" y="455" class="label" text-anchor="end">Always remote</text>
<rect x="190" y="427" width="705.0" height="27" rx="3" fill="#386cb0"/>
<rect x="190" y="463" width="705.0" height="18" rx="3" fill="#1b9e77"/>
<text x="903.0" y="446" class="value" text-anchor="start">100.0%</text>
<text x="903.0" y="477" class="small" text-anchor="start">100.0%</text>
<text x="480.0" y="555" class="subtitle" text-anchor="middle">Fine routing halved remote calls but missed the five-point accuracy tolerance.</text>
</svg>
